<svg xmlns="http://www.w3.org/2000/svg" width="500" height="500" viewBox="0 0 500 500" version="1.1">
	<path d="M 246.926 147.074 C 245.867 148.133, 244.532 149, 243.960 149 C 241.699 149, 235.111 153.079, 232.652 156.002 C 229.447 159.811, 227.628 166.206, 228.472 170.702 C 228.984 173.433, 228.614 174.670, 226.553 177.119 C 225.149 178.788, 224.010 180.906, 224.022 181.827 C 224.051 184.072, 227.696 191.999, 228.701 192.004 C 229.140 192.006, 230.333 194.032, 231.350 196.507 C 233.930 202.779, 240.888 208.711, 246.685 209.580 C 255.475 210.898, 262.777 206.860, 267.084 198.301 C 268.412 195.660, 270.563 192.297, 271.864 190.826 C 275.278 186.966, 275.922 179.922, 273.117 177.117 C 271.458 175.458, 271 173.771, 271 169.316 C 271 159.622, 265.211 151.520, 256.822 149.473 C 255.350 149.114, 253.925 148.248, 253.657 147.549 C 252.786 145.279, 248.989 145.011, 246.926 147.074 M 240.394 158.416 C 240.095 159.194, 239.997 161.107, 240.175 162.666 L 240.500 165.500 249.750 165.788 L 259 166.075 259 161.538 L 259 157 249.969 157 C 243.103 157, 240.807 157.339, 240.394 158.416 M 245 175.636 C 244.175 175.959, 241.817 177.356, 239.759 178.741 C 236.686 180.810, 235.748 181.036, 234.509 180.007 C 233.229 178.945, 233 179.153, 233 181.378 C 233 184.709, 231.415 184.790, 230.589 181.500 C 229.660 177.798, 228 178.469, 228 182.548 C 228 184.982, 228.738 186.787, 230.352 188.298 C 231.646 189.509, 233.258 192.195, 233.935 194.267 C 236.754 202.893, 245.505 208.074, 253.532 205.869 C 258.505 204.503, 264.512 198.361, 266.118 193 C 266.777 190.800, 267.885 189, 268.581 189 C 270.102 189, 272.412 182.515, 271.623 180.459 C 270.762 178.217, 269.286 178.724, 268.589 181.500 C 267.833 184.514, 266 184.826, 266 181.941 C 266 180.747, 265.555 180.157, 264.941 180.536 C 264.359 180.896, 262.101 179.956, 259.923 178.447 C 256.013 175.737, 248.408 174.305, 245 175.636 M 238.332 184.578 C 237.999 185.445, 238.463 186.892, 239.363 187.792 C 240.879 189.307, 241.121 189.307, 242.637 187.792 C 244.681 185.747, 243.743 183, 241 183 C 239.865 183, 238.665 183.710, 238.332 184.578 M 256.701 183.632 C 255.519 184.814, 255.922 187.756, 257.341 188.300 C 259.356 189.074, 261.244 187.504, 260.837 185.392 C 260.466 183.466, 257.942 182.392, 256.701 183.632 M 270.990 200.516 C 269.204 203.407, 268.935 204.894, 269.483 208.874 C 270.082 213.234, 269.701 214.673, 265.642 223.357 C 263.164 228.661, 260.703 233, 260.174 233 C 259.645 233, 257.776 234.341, 256.022 235.980 C 253.254 238.565, 252.925 239.392, 253.532 242.230 C 254.899 248.626, 257.566 249.828, 258.566 244.500 C 259.075 241.788, 259.704 241.003, 261.361 241.015 C 265.169 241.043, 266.205 242.391, 265.461 246.354 C 264.605 250.917, 265.929 251.062, 269.517 246.797 C 271.958 243.896, 272.155 243.071, 271.605 238.047 C 271.057 233.033, 271.376 231.683, 274.930 224 C 277.972 217.423, 279.790 214.830, 282.965 212.536 C 287.842 209.014, 288.672 206.544, 286.624 201.642 C 284.703 197.046, 283.407 197.017, 282.556 201.553 C 281.798 205.594, 280.103 206.661, 277.043 205.023 C 275.288 204.084, 275.039 203.308, 275.576 200.446 C 276.458 195.745, 273.914 195.784, 270.990 200.516 M 227.809 214.089 C 218.560 217.713, 214.542 221.703, 213.668 228.136 C 213.342 230.536, 212.783 234.630, 212.427 237.233 C 211.806 241.758, 211.903 242.014, 214.639 243.090 C 223.035 246.393, 251 248.361, 251 245.650 C 251 244.629, 248.074 244.135, 239.010 243.622 C 224.198 242.785, 223.787 242.653, 225.175 239.165 C 227.281 233.875, 227.772 229.913, 227.064 223.915 C 226.404 218.309, 226.515 217.743, 228.422 217.009 C 229.565 216.569, 230.844 216.528, 231.264 216.919 C 231.685 217.309, 232.608 221.650, 233.316 226.564 L 234.604 235.500 243.302 235.789 C 249.006 235.978, 252 235.709, 252 235.005 C 252 234.415, 253.608 232.984, 255.574 231.824 C 258.387 230.164, 259.985 227.905, 263.074 221.218 C 265.233 216.544, 267 212.607, 267 212.469 C 267 212.330, 265.841 211.926, 264.425 211.571 C 262.430 211.070, 261.071 211.608, 258.390 213.962 C 255.629 216.386, 254.019 217, 250.416 217 C 245.732 217, 241.298 215.269, 239.055 212.566 C 237.337 210.496, 236.792 210.570, 227.809 214.089 M 277.536 226.381 C 274.315 233.422, 274.049 234.619, 275.038 237.615 C 275.647 239.460, 275.836 241.943, 275.458 243.134 C 274.826 245.125, 275.041 245.254, 278.135 244.737 C 285.072 243.579, 287 242.300, 287 238.857 C 287 232.879, 284.793 222.966, 282.964 220.730 L 281.140 218.500 277.536 226.381 M 162.215 279.519 C 160.447 283.104, 159 286.254, 159 286.519 C 159 286.784, 162.156 287, 166.013 287 L 173.025 287 169.500 280 C 167.561 276.150, 165.852 273, 165.702 273 C 165.552 273, 163.983 275.934, 162.215 279.519 M 173 278.066 C 173 284.963, 174.249 287, 178.478 287 C 182.934 287, 185 284.078, 185 277.777 C 185 273.156, 184.904 273, 182.055 273 C 179.260 273, 179.090 273.243, 178.735 277.750 L 178.360 282.500 178.180 277.750 C 178.015 273.398, 177.790 273, 175.500 273 C 173.162 273, 173 273.329, 173 278.066 M 186 275.500 C 186 277.056, 186.567 278, 187.500 278 C 188.611 278, 189 279.167, 189 282.500 C 189 286.833, 189.111 287, 192 287 C 194.889 287, 195 286.833, 195 282.500 C 195 279.167, 195.389 278, 196.500 278 C 197.433 278, 198 277.056, 198 275.500 C 198 273.111, 197.733 273, 192 273 C 186.267 273, 186 273.111, 186 275.500 M 200.488 275.013 C 199.486 276.120, 198.667 278.364, 198.667 280 C 198.667 286.394, 205.918 289.305, 210.686 284.826 L 213 282.651 213 284.826 C 213 288.120, 218.212 287.817, 220.927 284.365 C 222.067 282.916, 223 281.171, 223 280.488 C 223 279.804, 223.675 278.685, 224.500 278 C 225.325 277.315, 226 275.880, 226 274.811 C 226 273.282, 225.416 272.935, 223.263 273.184 C 221.229 273.419, 219.926 274.591, 218.188 277.750 C 215.627 282.406, 213 283.380, 213 279.674 C 213 274.098, 204.263 270.842, 200.488 275.013 M 227 280 L 227 287 232.500 287 C 237.700 287, 238 286.864, 238 284.500 C 238 282.389, 237.533 282, 235 282 C 231.239 282, 231.008 280.043, 234.750 279.882 L 237.500 279.763 234.500 279 L 231.500 278.237 234.750 278.118 C 237.518 278.018, 238 277.630, 238 275.500 C 238 273.136, 237.700 273, 232.500 273 L 227 273 227 280 M 239 280 L 239 287 244.500 287 C 250.395 287, 250.818 286.613, 248.514 283.324 C 247.200 281.448, 247.200 281.137, 248.514 280.633 C 250.530 279.859, 250.455 274.389, 248.418 273.607 C 247.548 273.273, 245.073 273, 242.918 273 L 239 273 239 280 M 251.049 273.750 C 251.075 274.163, 252.594 277.412, 254.425 280.971 L 257.752 287.442 261.389 280.221 L 265.025 273 258.013 273 C 254.156 273, 251.022 273.337, 251.049 273.750 M 266 280 C 266 286.800, 266.071 287, 268.500 287 C 270.929 287, 271 286.800, 271 280 C 271 273.200, 270.929 273, 268.500 273 C 266.071 273, 266 273.200, 266 280 M 274.073 275.635 C 272.933 277.084, 272 279.048, 272 280 C 272 283.361, 275.906 287, 279.514 287 C 281.366 287, 283.160 286.551, 283.499 286.002 C 284.329 284.659, 281.873 281.500, 280 281.500 C 279.175 281.500, 278.500 280.825, 278.500 280 C 278.500 279.175, 279.175 278.500, 280 278.500 C 281.873 278.500, 284.329 275.341, 283.499 273.998 C 283.160 273.449, 281.366 273, 279.514 273 C 277.066 273, 275.579 273.720, 274.073 275.635 M 285 280 L 285 287 290.500 287 C 295.700 287, 296 286.864, 296 284.500 C 296 282.389, 295.533 282, 293 282 C 289.239 282, 289.008 280.043, 292.750 279.882 L 295.500 279.763 292.500 279 L 289.500 278.237 292.750 278.118 C 295.518 278.018, 296 277.630, 296 275.500 C 296 273.136, 295.700 273, 290.500 273 L 285 273 285 280 M 303 280 C 303 286.800, 303.071 287, 305.500 287 C 307.333 287, 308 286.467, 308 285 C 308 283.900, 308.605 283, 309.345 283 C 311.127 283, 314 279.755, 314 277.743 C 314 274.981, 311.046 273, 306.929 273 L 303 273 303 280 M 315 280 L 315 287 320.500 287 C 323.525 287, 326 286.759, 326 286.465 C 326 286.170, 325.309 284.875, 324.464 283.586 C 323.083 281.478, 323.083 281.182, 324.464 280.652 C 326.289 279.952, 326.500 275.900, 324.800 274.200 C 324.140 273.540, 321.665 273, 319.300 273 L 315 273 315 280 M 329 275 C 327.889 276.111, 327 278.333, 327 280 C 327 281.667, 327.889 283.889, 329 285 C 330.111 286.111, 332.333 287, 334 287 C 335.667 287, 337.889 286.111, 339 285 C 340.111 283.889, 341 281.667, 341 280 C 341 278.333, 340.111 276.111, 339 275 C 337.889 273.889, 335.667 273, 334 273 C 332.333 273, 330.111 273.889, 329 275" stroke="none" fill="#000000" fill-rule="evenodd"/>
</svg>